<?xml version="1.0" standalone="no"?>
<svg xmlns:xlink="http://www.w3.org/1999/xlink" id="wave" style="transform:rotate(180deg); transition: 0.3s" viewBox="0 0 1440 490" version="1.1" xmlns="http://www.w3.org/2000/svg"><defs><linearGradient id="sw-gradient-0" x1="0" x2="0" y1="1" y2="0"><stop stop-color="rgba(243, 144.731, 62, 1)" offset="0%"/><stop stop-color="rgba(197.272, 255, 11, 1)" offset="100%"/></linearGradient></defs><path style="transform:translate(0, 0px); opacity:1" fill="url(#sw-gradient-0)" d="M0,0L34.3,24.5C68.6,49,137,98,206,122.5C274.3,147,343,147,411,163.3C480,180,549,212,617,212.3C685.7,212,754,180,823,212.3C891.4,245,960,343,1029,351.2C1097.1,359,1166,278,1234,204.2C1302.9,131,1371,65,1440,73.5C1508.6,82,1577,163,1646,187.8C1714.3,212,1783,180,1851,171.5C1920,163,1989,180,2057,179.7C2125.7,180,2194,163,2263,155.2C2331.4,147,2400,147,2469,138.8C2537.1,131,2606,114,2674,163.3C2742.9,212,2811,327,2880,359.3C2948.6,392,3017,343,3086,343C3154.3,343,3223,392,3291,375.7C3360,359,3429,278,3497,269.5C3565.7,261,3634,327,3703,343C3771.4,359,3840,327,3909,326.7C3977.1,327,4046,359,4114,310.3C4182.9,261,4251,131,4320,73.5C4388.6,16,4457,33,4526,106.2C4594.3,180,4663,310,4731,326.7C4800,343,4869,245,4903,196L4937.1,147L4937.1,490L4902.9,490C4868.6,490,4800,490,4731,490C4662.9,490,4594,490,4526,490C4457.1,490,4389,490,4320,490C4251.4,490,4183,490,4114,490C4045.7,490,3977,490,3909,490C3840,490,3771,490,3703,490C3634.3,490,3566,490,3497,490C3428.6,490,3360,490,3291,490C3222.9,490,3154,490,3086,490C3017.1,490,2949,490,2880,490C2811.4,490,2743,490,2674,490C2605.7,490,2537,490,2469,490C2400,490,2331,490,2263,490C2194.3,490,2126,490,2057,490C1988.6,490,1920,490,1851,490C1782.9,490,1714,490,1646,490C1577.1,490,1509,490,1440,490C1371.4,490,1303,490,1234,490C1165.7,490,1097,490,1029,490C960,490,891,490,823,490C754.3,490,686,490,617,490C548.6,490,480,490,411,490C342.9,490,274,490,206,490C137.1,490,69,490,34,490L0,490Z"/></svg>